<?xml version='1.0' encoding='utf-8'?>
<svg xmlns="http://www.w3.org/2000/svg" width="3000px" height="3000px" version="1.1" style="shape-rendering:geometricPrecision; text-rendering:geometricPrecision; image-rendering:optimizeQuality; fill-rule:evenodd; clip-rule:evenodd" viewBox="0 0 3000 3000"> <defs> <style type="text/css">  .fil0 {fill:black}  </style> </defs> <g id="Layer_x0020_1"> <metadata id="CorelCorpID_0Corel-Layer"/> <g id="_344395152"> <path class="fil0" d="M2208 1925c-8,-17 -15,-39 -12,-64 19,-178 211,-178 331,-110 75,43 90,107 83,189 -3,41 -12,80 -33,116 -21,36 -53,69 -90,93 -37,24 -77,39 -115,54 -38,16 -73,30 -95,43 -5,4 -10,7 -14,10 36,0 59,28 58,62 0,18 -20,39 -31,43 -11,5 -7,3 -11,3 -5,2 -11,3 -16,3 -5,0 -9,-1 -13,-2 -10,-1 -21,-3 -29,-7 -21,-8 -33,-22 -39,-41 -7,-18 -7,-41 -1,-62 5,-20 16,-37 36,-53 19,-16 47,-31 73,-42 26,-12 51,-20 73,-28 22,-9 42,-17 61,-30 20,-12 39,-29 53,-50 14,-21 23,-46 28,-71 6,-24 9,-48 7,-71 -1,-23 -7,-47 -14,-65 -8,-19 -20,-31 -34,-42 -40,-33 -98,-29 -125,-20 -30,9 -71,36 -73,81 12,-13 29,-21 48,-21 36,0 64,29 64,64 0,25 -14,47 -35,57 -9,6 -20,11 -32,14 -19,3 -43,2 -61,-8 -19,-10 -33,-28 -42,-45z"/> <path class="fil0" d="M780 2018c4,88 138,75 115,-21 -24,-96 -120,-67 -115,21z"/> <path class="fil0" d="M1280 2675c-431,-294 -319,-586 -397,-587 -159,-3 -33,486 397,587z"/> <path class="fil0" d="M1334 1921c147,1 223,-2 293,-7 70,-5 150,-16 208,-30 58,-15 119,-20 163,-36 43,-17 67,-21 99,-40 32,-20 46,-24 65,-52 19,-29 34,-64 38,-89 4,-24 -3,-38 -18,-52 -16,-14 -40,-29 -64,-42 -25,-12 -50,-23 -81,-34 -31,-12 -68,-25 -107,-36 -40,-10 -83,-19 -121,-25 -38,-6 -72,-9 -105,-12 -33,-3 -64,-5 -99,-7 -34,-1 -73,-2 -93,-3 -20,0 -22,0 -10,-1 12,-2 39,-4 77,-5 38,0 88,1 125,2 37,2 61,4 94,8 32,4 72,9 109,17 38,8 74,18 113,31 40,14 84,30 121,50 36,19 66,42 80,58 15,17 16,27 16,38 0,12 0,25 0,51 0,25 -1,63 -3,103 -2,40 -5,82 -15,145 -9,63 -24,148 -39,215 -16,67 -31,117 -55,167 -24,51 -55,103 -89,145 -33,42 -68,74 -108,100 -41,25 -86,45 -140,61 -55,16 -119,28 -172,36 -53,7 -96,10 -117,11 -22,1 -22,1 25,-8 47,-9 143,-27 222,-51 80,-24 143,-54 195,-103 52,-48 93,-115 122,-184 29,-69 47,-139 57,-213 11,-74 14,-151 16,-191 1,-22 10,-56 -3,-64 -30,-19 -111,18 -175,33 -57,13 -138,38 -229,47 -91,10 -168,21 -282,20 -114,-2 -145,1 -242,-10 -97,-12 -83,-9 -166,-23 -83,-14 -115,-26 -150,-36 -87,-24 -152,-46 -198,-86 1,79 47,350 122,537 -126,-131 -167,-399 -182,-635 -5,-34 5,-74 60,-98 -78,64 -47,111 1,148 146,114 508,148 642,150z"/> <path class="fil0" d="M1233 1594c6,-5 -213,14 -299,71 -21,14 -25,26 -12,37 118,102 587,66 559,63 -222,-28 -454,-35 -481,-88 -14,-27 138,-64 156,-67 10,-3 74,-14 77,-16z"/> <path class="fil0" d="M1283 488c-58,-74 -134,-216 -86,-307 41,-77 146,-100 216,-70 110,46 111,145 105,176 -12,-36 -78,-185 -199,-111 -67,41 -57,123 -33,189 34,94 118,157 179,230 130,153 23,279 23,278 71,-227 -98,-251 -205,-385z"/> <path class="fil0" d="M1530 210c100,-244 393,-129 322,178 -41,180 -196,387 -340,496 -56,41 -156,102 -212,140 -56,39 -93,74 -119,119 -26,45 -42,99 -34,160 8,60 40,128 65,172 26,45 45,68 71,93 26,25 59,53 78,70 19,16 24,19 1,-10 -24,-29 -75,-92 -109,-143 -34,-52 -51,-93 -56,-137 -6,-44 -1,-93 14,-136 15,-43 44,-99 100,-133 475,-291 669,-514 688,-773 12,-148 -118,-308 -323,-285 -87,10 -161,98 -146,189z"/> <path class="fil0" d="M1470 1490c58,149 149,189 274,174 15,-1 28,-4 35,-7 42,-15 -57,-18 -59,-18 -15,-1 -29,-1 -30,-2 -8,-6 160,-10 153,16 -4,13 -65,26 -77,28 -66,9 -190,8 -246,-28 -475,-301 221,-396 2,-613 306,243 -143,218 -52,450z"/> <path class="fil0" d="M1944 1572c124,33 200,77 200,125 0,100 -319,181 -711,181 -393,0 -711,-81 -711,-181 0,-45 64,-86 171,-117 -69,26 -109,57 -109,91 0,91 289,164 646,164 357,0 646,-73 646,-164 0,-37 -49,-71 -132,-99z"/> <path class="fil0" d="M2279 2469c195,51 315,121 315,198 0,157 -502,285 -1122,285 -620,0 -1122,-128 -1122,-285 0,-71 102,-136 271,-186 -110,42 -174,91 -174,145 0,143 457,259 1020,259 564,0 1020,-116 1020,-259 0,-59 -77,-113 -208,-157z"/> <path class="fil0" d="M2035 2545c48,23 76,49 76,77 0,91 -290,164 -646,164 -347,0 -629,-69 -646,-156 66,71 316,123 614,123 349,0 631,-71 631,-160 0,-16 -10,-33 -29,-48z"/> </g> </g> </svg>